<svg width="36" height="35" viewBox="0 0 36 35" fill="none" xmlns="http://www.w3.org/2000/svg">
<path fill-rule="evenodd" clip-rule="evenodd" d="M6.12142 27.5615C14.3486 33.9491 25.0424 34.3036 33.1723 21.8698C33.4587 21.4319 33.7419 20.978 34.0217 20.508C33.6081 20.8943 33.1757 21.1925 32.7489 21.4007C31.1375 22.1869 29.607 21.6894 29.4822 19.8035C29.464 19.5291 29.4756 19.2252 29.5211 18.8916C29.3043 19.1225 29.0848 19.3421 28.8634 19.5505C23.7651 24.3498 17.6551 23.191 20.2615 15.7222C20.3517 15.4637 20.4523 15.1977 20.5638 14.924C20.3035 15.0459 20.042 15.1558 19.7808 15.2538C14.8085 17.1193 9.92803 14.6538 14.8455 7.3871C14.9665 7.20829 15.0934 7.02658 15.2265 6.84195C15.0116 6.80286 14.7967 6.75077 14.5905 6.68188C13.3559 6.2694 12.431 5.25463 13.6696 2.82124C13.7795 2.60539 13.9064 2.37839 14.0516 2.13965C13.7859 2.17808 13.5243 2.22399 13.2667 2.27709C1.70736 4.65995 -1.65486 21.5242 6.12142 27.5615ZM12.9178 2.98269C7.81318 4.24481 4.43077 8.53206 3.12395 13.3573C1.70904 18.5816 2.78539 24.1981 6.49571 27.0787L6.49572 27.0787C10.6591 30.3111 15.408 31.9179 20.0756 31.0926C24.2352 30.3572 28.4376 27.6709 32.1723 22.2632C31.6338 22.3998 31.1023 22.4103 30.6135 22.2714C29.9965 22.0961 29.4877 21.6879 29.1814 21.0682C29.0682 20.8391 28.9853 20.587 28.9326 20.3141C27.8378 21.2814 26.6981 21.9979 25.5956 22.4529C24.1498 23.0494 22.7178 23.2148 21.5354 22.8348C20.3156 22.4428 19.4434 21.4942 19.144 20.0714C18.9121 18.9691 19.0254 17.6028 19.5301 15.9887C18.5453 16.3084 17.565 16.4696 16.6547 16.4627C15.3526 16.4528 14.136 16.096 13.2902 15.2942C12.4229 14.4719 12.037 13.2687 12.249 11.7795C12.4332 10.4853 13.0673 8.95985 14.2337 7.20293C13.6255 6.97156 13.0376 6.58151 12.7134 5.91565C12.3378 5.14406 12.3965 4.17367 12.9178 2.98269Z" fill="#874D28"/>
<path d="M12.0338 21.9661C12.2458 21.3175 12.4436 20.5744 12.315 19.7025C12.208 18.9773 12.8635 17.7449 14.2698 17.9325L14.2773 17.9337C14.8313 18.019 16.5392 18.2821 17.1875 19.3539C17.6217 20.0718 18.0929 21.3192 17.0444 21.7208C16.4757 21.9387 15.8732 22.511 15.313 23.3344C14.9083 23.9291 13.8911 24.5431 12.9568 24.0522C12.4675 23.7952 11.6945 23.0038 12.0338 21.9661Z" fill="#874D28"/>
<path fill-rule="evenodd" clip-rule="evenodd" d="M30.1165 26.6992C30.1995 26.6992 30.2667 26.7679 30.2667 26.8527V29.3621C30.2667 29.4469 30.1995 29.5156 30.1165 29.5156C30.0336 29.5156 29.9663 29.4469 29.9663 29.3621V26.8527C29.9663 26.7679 30.0336 26.6992 30.1165 26.6992Z" fill="#874D28"/>
<path fill-rule="evenodd" clip-rule="evenodd" d="M29.103 28.048C29.103 27.9651 29.1713 27.8978 29.2555 27.8978H31.0909C31.1752 27.8978 31.2435 27.9651 31.2435 28.048C31.2435 28.131 31.1752 28.1982 31.0909 28.1982H29.2555C29.1713 28.1982 29.103 28.131 29.103 28.048Z" fill="#874D28"/>
<path d="M28.0877 8.37495C28.0877 10.1585 26.6335 11.6044 24.8395 11.6044C23.0456 11.6044 21.5913 10.1585 21.5913 8.37495C21.5913 6.59138 23.0456 5.14551 24.8395 5.14551C26.6335 5.14551 28.0877 6.59138 28.0877 8.37495Z" fill="#874D28"/>
<path fill-rule="evenodd" clip-rule="evenodd" d="M24.8395 11.5556C26.6064 11.5556 28.0387 10.1316 28.0387 8.37495C28.0387 6.6183 26.6064 5.19425 24.8395 5.19425C23.0727 5.19425 21.6403 6.6183 21.6403 8.37495C21.6403 10.1316 23.0727 11.5556 24.8395 11.5556ZM24.8395 11.6044C26.6335 11.6044 28.0877 10.1585 28.0877 8.37495C28.0877 6.59138 26.6335 5.14551 24.8395 5.14551C23.0456 5.14551 21.5913 6.59138 21.5913 8.37495C21.5913 10.1585 23.0456 11.6044 24.8395 11.6044Z" fill="#874D28"/>
<path d="M29.2527 13.7047C29.2527 14.5136 28.5886 15.1693 27.7694 15.1693C26.9502 15.1693 26.2861 14.5136 26.2861 13.7047C26.2861 12.8959 26.9502 12.2402 27.7694 12.2402C28.5886 12.2402 29.2527 12.8959 29.2527 13.7047Z" fill="#874D28"/>
<path fill-rule="evenodd" clip-rule="evenodd" d="M27.7694 15.1327C28.5682 15.1327 29.2157 14.4934 29.2157 13.7047C29.2157 12.9161 28.5682 12.2768 27.7694 12.2768C26.9707 12.2768 26.3231 12.9161 26.3231 13.7047C26.3231 14.4934 26.9707 15.1327 27.7694 15.1327ZM27.7694 15.1693C28.5886 15.1693 29.2527 14.5136 29.2527 13.7047C29.2527 12.8959 28.5886 12.2402 27.7694 12.2402C26.9502 12.2402 26.2861 12.8959 26.2861 13.7047C26.2861 14.5136 26.9502 15.1693 27.7694 15.1693Z" fill="#874D28"/>
<path d="M19.8279 6.6266C19.8279 7.11397 19.4328 7.50907 18.9455 7.50907C18.4581 7.50907 18.063 7.11397 18.063 6.6266C18.063 6.13923 18.4581 5.74414 18.9455 5.74414C19.4328 5.74414 19.8279 6.13923 19.8279 6.6266Z" fill="#874D28"/>
<path fill-rule="evenodd" clip-rule="evenodd" d="M18.9455 7.47237C19.4126 7.47237 19.7912 7.09371 19.7912 6.6266C19.7912 6.1595 19.4126 5.78084 18.9455 5.78084C18.4783 5.78084 18.0997 6.1595 18.0997 6.6266C18.0997 7.09371 18.4783 7.47237 18.9455 7.47237ZM18.9455 7.50907C19.4328 7.50907 19.8279 7.11397 19.8279 6.6266C19.8279 6.13923 19.4328 5.74414 18.9455 5.74414C18.4581 5.74414 18.063 6.13923 18.063 6.6266C18.063 7.11397 18.4581 7.50907 18.9455 7.50907Z" fill="#874D28"/>
<path d="M6.0452 3.69985C6.0452 4.18722 5.65011 4.58231 5.16274 4.58231C4.67537 4.58231 4.28027 4.18722 4.28027 3.69985C4.28027 3.21247 4.67537 2.81738 5.16274 2.81738C5.65011 2.81738 6.0452 3.21247 6.0452 3.69985Z" fill="#874D28"/>
<path fill-rule="evenodd" clip-rule="evenodd" d="M5.16274 4.55173C5.63322 4.55173 6.01462 4.17033 6.01462 3.69985C6.01462 3.22936 5.63322 2.84796 5.16274 2.84796C4.69225 2.84796 4.31085 3.22936 4.31085 3.69985C4.31085 4.17033 4.69225 4.55173 5.16274 4.55173ZM5.16274 4.58231C5.65011 4.58231 6.0452 4.18722 6.0452 3.69985C6.0452 3.21247 5.65011 2.81738 5.16274 2.81738C4.67537 2.81738 4.28027 3.21247 4.28027 3.69985C4.28027 4.18722 4.67537 4.58231 5.16274 4.58231Z" fill="#874D28"/>
<path d="M3.98144 6.251C3.98144 6.57245 3.71244 6.83305 3.38061 6.83305C3.04878 6.83305 2.77979 6.57245 2.77979 6.251C2.77979 5.92954 3.04878 5.66895 3.38061 5.66895C3.71244 5.66895 3.98144 5.92954 3.98144 6.251Z" fill="#874D28"/>
<path fill-rule="evenodd" clip-rule="evenodd" d="M3.38061 6.80279C3.69519 6.80279 3.95021 6.55574 3.95021 6.251C3.95021 5.94625 3.69519 5.6992 3.38061 5.6992C3.06603 5.6992 2.81102 5.94625 2.81102 6.251C2.81102 6.55574 3.06603 6.80279 3.38061 6.80279ZM3.38061 6.83305C3.71244 6.83305 3.98144 6.57245 3.98144 6.251C3.98144 5.92954 3.71244 5.66895 3.38061 5.66895C3.04878 5.66895 2.77979 5.92954 2.77979 6.251C2.77979 6.57245 3.04878 6.83305 3.38061 6.83305Z" fill="#874D28"/>
<path d="M3.07914 25.6467C3.07914 25.9786 2.81855 26.2475 2.49709 26.2475C2.17563 26.2475 1.91504 25.9786 1.91504 25.6467C1.91504 25.3149 2.17563 25.0459 2.49709 25.0459C2.81855 25.0459 3.07914 25.3149 3.07914 25.6467Z" fill="#874D28"/>
<path fill-rule="evenodd" clip-rule="evenodd" d="M2.49709 26.2163C2.80184 26.2163 3.04888 25.9613 3.04888 25.6467C3.04888 25.3321 2.80184 25.0771 2.49709 25.0771C2.19234 25.0771 1.94529 25.3321 1.94529 25.6467C1.94529 25.9613 2.19234 26.2163 2.49709 26.2163ZM2.49709 26.2475C2.81855 26.2475 3.07914 25.9786 3.07914 25.6467C3.07914 25.3149 2.81855 25.0459 2.49709 25.0459C2.17563 25.0459 1.91504 25.3149 1.91504 25.6467C1.91504 25.9786 2.17563 26.2475 2.49709 26.2475Z" fill="#874D28"/>
<path d="M4.5439 28.144C4.5439 28.7143 4.08996 29.1767 3.53001 29.1767C2.97005 29.1767 2.51611 28.7143 2.51611 28.144C2.51611 27.5737 2.97005 27.1113 3.53001 27.1113C4.08996 27.1113 4.5439 27.5737 4.5439 28.144Z" fill="#874D28"/>
<path fill-rule="evenodd" clip-rule="evenodd" d="M3.53001 29.146C4.07333 29.146 4.51379 28.6974 4.51379 28.144C4.51379 27.5906 4.07333 27.142 3.53001 27.142C2.98668 27.142 2.54623 27.5906 2.54623 28.144C2.54623 28.6974 2.98668 29.146 3.53001 29.146ZM3.53001 29.1767C4.08996 29.1767 4.5439 28.7143 4.5439 28.144C4.5439 27.5737 4.08996 27.1113 3.53001 27.1113C2.97005 27.1113 2.51611 27.5737 2.51611 28.144C2.51611 28.7143 2.97005 29.1767 3.53001 29.1767Z" fill="#874D28"/>
<path d="M26.2866 31.977C26.2866 32.5473 25.8326 33.0097 25.2727 33.0097C24.7127 33.0097 24.2588 32.5473 24.2588 31.977C24.2588 31.4067 24.7127 30.9443 25.2727 30.9443C25.8326 30.9443 26.2866 31.4067 26.2866 31.977Z" fill="#874D28"/>
<path fill-rule="evenodd" clip-rule="evenodd" d="M25.2727 32.979C25.816 32.979 26.2565 32.5304 26.2565 31.977C26.2565 31.4236 25.816 30.975 25.2727 30.975C24.7294 30.975 24.2889 31.4236 24.2889 31.977C24.2889 32.5304 24.7294 32.979 25.2727 32.979ZM25.2727 33.0097C25.8326 33.0097 26.2866 32.5473 26.2866 31.977C26.2866 31.4067 25.8326 30.9443 25.2727 30.9443C24.7127 30.9443 24.2588 31.4067 24.2588 31.977C24.2588 32.5473 24.7127 33.0097 25.2727 33.0097Z" fill="#874D28"/>
<path d="M27.7895 30.3584C27.7895 30.6799 27.5205 30.9405 27.1887 30.9405C26.8569 30.9405 26.5879 30.6799 26.5879 30.3584C26.5879 30.037 26.8569 29.7764 27.1887 29.7764C27.5205 29.7764 27.7895 30.037 27.7895 30.3584Z" fill="#874D28"/>
<path fill-rule="evenodd" clip-rule="evenodd" d="M27.1887 30.9102C27.5033 30.9102 27.7583 30.6632 27.7583 30.3584C27.7583 30.0537 27.5033 29.8066 27.1887 29.8066C26.8741 29.8066 26.6191 30.0537 26.6191 30.3584C26.6191 30.6632 26.8741 30.9102 27.1887 30.9102ZM27.1887 30.9405C27.5205 30.9405 27.7895 30.6799 27.7895 30.3584C27.7895 30.037 27.5205 29.7764 27.1887 29.7764C26.8569 29.7764 26.5879 30.037 26.5879 30.3584C26.5879 30.6799 26.8569 30.9405 27.1887 30.9405Z" fill="#874D28"/>
<path d="M6.30839 28.8766C6.30839 29.0425 6.1823 29.177 6.02675 29.177C5.87121 29.177 5.74512 29.0425 5.74512 28.8766C5.74512 28.7107 5.87121 28.5762 6.02675 28.5762C6.1823 28.5762 6.30839 28.7107 6.30839 28.8766Z" fill="#874D28"/>
<path fill-rule="evenodd" clip-rule="evenodd" d="M6.02675 29.1458C6.16613 29.1458 6.27911 29.0253 6.27911 28.8766C6.27911 28.7279 6.16613 28.6074 6.02675 28.6074C5.88738 28.6074 5.7744 28.7279 5.7744 28.8766C5.7744 29.0253 5.88738 29.1458 6.02675 29.1458ZM6.02675 29.177C6.1823 29.177 6.30839 29.0425 6.30839 28.8766C6.30839 28.7107 6.1823 28.5762 6.02675 28.5762C5.87121 28.5762 5.74512 28.7107 5.74512 28.8766C5.74512 29.0425 5.87121 29.177 6.02675 29.177Z" fill="#874D28"/>
<path d="M11.303 1.55703C11.303 1.71257 11.1769 1.83866 11.0214 1.83866C10.8658 1.83866 10.7397 1.71257 10.7397 1.55703C10.7397 1.40148 10.8658 1.27539 11.0214 1.27539C11.1769 1.27539 11.303 1.40148 11.303 1.55703Z" fill="#874D28"/>
<path fill-rule="evenodd" clip-rule="evenodd" d="M11.0214 1.8211C11.1672 1.8211 11.2855 1.70287 11.2855 1.55703C11.2855 1.41119 11.1672 1.29296 11.0214 1.29296C10.8755 1.29296 10.7573 1.41119 10.7573 1.55703C10.7573 1.70287 10.8755 1.8211 11.0214 1.8211ZM11.0214 1.83866C11.1769 1.83866 11.303 1.71257 11.303 1.55703C11.303 1.40148 11.1769 1.27539 11.0214 1.27539C10.8658 1.27539 10.7397 1.40148 10.7397 1.55703C10.7397 1.71257 10.8658 1.83866 11.0214 1.83866Z" fill="#874D28"/>
<path d="M14.8333 4.78847C14.8333 4.94402 14.7072 5.07011 14.5517 5.07011C14.3961 5.07011 14.27 4.94402 14.27 4.78847C14.27 4.63293 14.3961 4.50684 14.5517 4.50684C14.7072 4.50684 14.8333 4.63293 14.8333 4.78847Z" fill="#874D28"/>
<path fill-rule="evenodd" clip-rule="evenodd" d="M14.5517 5.05254C14.6975 5.05254 14.8157 4.93431 14.8157 4.78847C14.8157 4.64263 14.6975 4.5244 14.5517 4.5244C14.4058 4.5244 14.2876 4.64263 14.2876 4.78847C14.2876 4.93431 14.4058 5.05254 14.5517 5.05254ZM14.5517 5.07011C14.7072 5.07011 14.8333 4.94402 14.8333 4.78847C14.8333 4.63293 14.7072 4.50684 14.5517 4.50684C14.3961 4.50684 14.27 4.63293 14.27 4.78847C14.27 4.94402 14.3961 5.07011 14.5517 5.07011Z" fill="#874D28"/>
<path d="M35.1112 19.9211C35.1112 20.1596 34.9179 20.3529 34.6794 20.3529C34.4409 20.3529 34.2476 20.1596 34.2476 19.9211C34.2476 19.6826 34.4409 19.4893 34.6794 19.4893C34.9179 19.4893 35.1112 19.6826 35.1112 19.9211Z" fill="#874D28"/>
<path fill-rule="evenodd" clip-rule="evenodd" d="M34.6794 20.335C34.908 20.335 35.0933 20.1497 35.0933 19.9211C35.0933 19.6925 34.908 19.5072 34.6794 19.5072C34.4508 19.5072 34.2655 19.6925 34.2655 19.9211C34.2655 20.1497 34.4508 20.335 34.6794 20.335ZM34.6794 20.3529C34.9179 20.3529 35.1112 20.1596 35.1112 19.9211C35.1112 19.6826 34.9179 19.4893 34.6794 19.4893C34.4409 19.4893 34.2476 19.6826 34.2476 19.9211C34.2476 20.1596 34.4409 20.3529 34.6794 20.3529Z" fill="#874D28"/>
<path d="M33.6472 20.0504C33.6472 20.2163 33.5127 20.3508 33.3468 20.3508C33.1809 20.3508 33.0464 20.2163 33.0464 20.0504C33.0464 19.8845 33.1809 19.75 33.3468 19.75C33.5127 19.75 33.6472 19.8845 33.6472 20.0504Z" fill="#874D28"/>
<path fill-rule="evenodd" clip-rule="evenodd" d="M33.3468 20.3321C33.5024 20.3321 33.6285 20.206 33.6285 20.0504C33.6285 19.8948 33.5024 19.7687 33.3468 19.7687C33.1912 19.7687 33.0651 19.8948 33.0651 20.0504C33.0651 20.206 33.1912 20.3321 33.3468 20.3321ZM33.3468 20.3508C33.5127 20.3508 33.6472 20.2163 33.6472 20.0504C33.6472 19.8845 33.5127 19.75 33.3468 19.75C33.1809 19.75 33.0464 19.8845 33.0464 20.0504C33.0464 20.2163 33.1809 20.3508 33.3468 20.3508Z" fill="#874D28"/>
<path fill-rule="evenodd" clip-rule="evenodd" d="M23.3582 1.16309C23.4412 1.16309 23.5084 1.23088 23.5084 1.3145V3.79049C23.5084 3.87412 23.4412 3.9419 23.3582 3.9419C23.2753 3.9419 23.208 3.87412 23.208 3.79049V1.3145C23.208 1.23088 23.2753 1.16309 23.3582 1.16309Z" fill="#874D28"/>
<path fill-rule="evenodd" clip-rule="evenodd" d="M22.3447 2.47772C22.3447 2.39477 22.413 2.32752 22.4972 2.32752L24.3326 2.32752C24.4169 2.32752 24.4852 2.39477 24.4852 2.47772C24.4852 2.56068 24.4169 2.62793 24.3326 2.62793L22.4972 2.62793C22.413 2.62793 22.3447 2.56068 22.3447 2.47772Z" fill="#874D28"/>
<path fill-rule="evenodd" clip-rule="evenodd" d="M31.5067 25.5371C31.5896 25.5371 31.6569 25.6051 31.6569 25.689V27.1501C31.6569 27.234 31.5896 27.302 31.5067 27.302C31.4237 27.302 31.3564 27.234 31.3564 27.1501V25.689C31.3564 25.6051 31.4237 25.5371 31.5067 25.5371Z" fill="#874D28"/>
<path fill-rule="evenodd" clip-rule="evenodd" d="M30.8667 26.3986C30.8667 26.3157 30.9334 26.2484 31.0156 26.2484H32.0697C32.1519 26.2484 32.2186 26.3157 32.2186 26.3986C32.2186 26.4816 32.1519 26.5488 32.0697 26.5488H31.0156C30.9334 26.5488 30.8667 26.4816 30.8667 26.3986Z" fill="#874D28"/>
<path fill-rule="evenodd" clip-rule="evenodd" d="M30.1165 14.6836C30.1995 14.6836 30.2667 14.7514 30.2667 14.835V17.311C30.2667 17.3946 30.1995 17.4624 30.1165 17.4624C30.0336 17.4624 29.9663 17.3946 29.9663 17.311V14.835C29.9663 14.7514 30.0336 14.6836 30.1165 14.6836Z" fill="#874D28"/>
<path fill-rule="evenodd" clip-rule="evenodd" d="M29.103 15.9963C29.103 15.9133 29.1713 15.8461 29.2555 15.8461H31.0909C31.1752 15.8461 31.2435 15.9133 31.2435 15.9963C31.2435 16.0792 31.1752 16.1465 31.0909 16.1465H29.2555C29.1713 16.1465 29.103 16.0792 29.103 15.9963Z" fill="#874D28"/>
<path fill-rule="evenodd" clip-rule="evenodd" d="M1.03275 9.20312C1.12608 9.20312 1.20173 9.27183 1.20173 9.35658V11.866C1.20173 11.9508 1.12608 12.0195 1.03275 12.0195C0.939425 12.0195 0.86377 11.9508 0.86377 11.866V9.35658C0.86377 9.27183 0.939425 9.20312 1.03275 9.20312Z" fill="#874D28"/>
<path fill-rule="evenodd" clip-rule="evenodd" d="M0 10.5519C0 10.469 0.0682865 10.4017 0.152522 10.4017H1.98792C2.07216 10.4017 2.14044 10.469 2.14044 10.5519C2.14044 10.6349 2.07216 10.7021 1.98792 10.7021H0.152522C0.0682865 10.7021 0 10.6349 0 10.5519Z" fill="#874D28"/>
<path fill-rule="evenodd" clip-rule="evenodd" d="M0.563781 13.0322C0.646737 13.0322 0.713987 13.1005 0.713987 13.1848V14.3817C0.713987 14.466 0.646737 14.5343 0.563781 14.5343C0.480824 14.5343 0.413574 14.466 0.413574 14.3817V13.1848C0.413574 13.1005 0.480824 13.0322 0.563781 13.0322Z" fill="#874D28"/>
<path fill-rule="evenodd" clip-rule="evenodd" d="M0 13.7453C0 13.6623 0.0692267 13.5951 0.154622 13.5951H1.04703C1.13242 13.5951 1.20165 13.6623 1.20165 13.7453C1.20165 13.8283 1.13242 13.8955 1.04703 13.8955H0.154622C0.0692267 13.8955 0 13.8283 0 13.7453Z" fill="#874D28"/>
<path fill-rule="evenodd" clip-rule="evenodd" d="M11.867 31.4316C11.95 31.4316 12.0172 31.4991 12.0172 31.5824V33.1585C12.0172 33.2417 11.95 33.3092 11.867 33.3092C11.784 33.3092 11.7168 33.2417 11.7168 33.1585V31.5824C11.7168 31.4991 11.784 31.4316 11.867 31.4316Z" fill="#874D28"/>
<path fill-rule="evenodd" clip-rule="evenodd" d="M11.1528 32.3332C11.1528 32.2502 11.2222 32.183 11.3078 32.183H12.5C12.5855 32.183 12.6549 32.2502 12.6549 32.3332C12.6549 32.4161 12.5855 32.4834 12.5 32.4834H11.3078C11.2222 32.4834 11.1528 32.4161 11.1528 32.3332Z" fill="#874D28"/>
<path fill-rule="evenodd" clip-rule="evenodd" d="M11.1528 32.3332C11.1528 32.2502 11.2222 32.183 11.3078 32.183H12.5C12.5855 32.183 12.6549 32.2502 12.6549 32.3332C12.6549 32.4161 12.5855 32.4834 12.5 32.4834H11.3078C11.2222 32.4834 11.1528 32.4161 11.1528 32.3332Z" fill="#874D28"/>
<path fill-rule="evenodd" clip-rule="evenodd" d="M13.782 32.292C13.865 32.292 13.9322 32.36 13.9322 32.444V34.4307C13.9322 34.5146 13.865 34.5826 13.782 34.5826C13.6991 34.5826 13.6318 34.5146 13.6318 34.4307V32.444C13.6318 32.36 13.6991 32.292 13.782 32.292Z" fill="#874D28"/>
<path fill-rule="evenodd" clip-rule="evenodd" d="M12.918 33.381C12.918 33.2981 12.986 33.2308 13.0699 33.2308H14.531C14.6149 33.2308 14.6829 33.2981 14.6829 33.381C14.6829 33.464 14.6149 33.5312 14.531 33.5312H13.0699C12.986 33.5312 12.918 33.464 12.918 33.381Z" fill="#874D28"/>
<path fill-rule="evenodd" clip-rule="evenodd" d="M12.918 33.381C12.918 33.2981 12.986 33.2308 13.0699 33.2308H14.531C14.6149 33.2308 14.6829 33.2981 14.6829 33.381C14.6829 33.464 14.6149 33.5312 14.531 33.5312H13.0699C12.986 33.5312 12.918 33.464 12.918 33.381Z" fill="#874D28"/>
<path fill-rule="evenodd" clip-rule="evenodd" d="M14.533 0C14.616 0 14.6832 0.0674799 14.6832 0.150721V1.72686C14.6832 1.8101 14.616 1.87758 14.533 1.87758C14.4501 1.87758 14.3828 1.8101 14.3828 1.72686V0.150721C14.3828 0.0674799 14.4501 0 14.533 0Z" fill="#874D28"/>
<path fill-rule="evenodd" clip-rule="evenodd" d="M13.8184 0.900575C13.8184 0.817618 13.886 0.750368 13.9694 0.750368L15.1318 0.750368C15.2152 0.750368 15.2829 0.817618 15.2829 0.900575C15.2829 0.983532 15.2152 1.05078 15.1318 1.05078L13.9694 1.05078C13.886 1.05078 13.8184 0.983532 13.8184 0.900575Z" fill="#874D28"/>
<path fill-rule="evenodd" clip-rule="evenodd" d="M13.8184 0.900575C13.8184 0.817618 13.886 0.750368 13.9694 0.750368L15.1318 0.750368C15.2152 0.750368 15.2829 0.817618 15.2829 0.900575C15.2829 0.983532 15.2152 1.05078 15.1318 1.05078L13.9694 1.05078C13.886 1.05078 13.8184 0.983532 13.8184 0.900575Z" fill="#874D28"/>
<path fill-rule="evenodd" clip-rule="evenodd" d="M2.32843 7.92285C2.41139 7.92285 2.47864 7.99117 2.47864 8.07545V9.27231C2.47864 9.35659 2.41139 9.42492 2.32843 9.42492C2.24547 9.42492 2.17822 9.35659 2.17822 9.27231V8.07545C2.17822 7.99117 2.24547 7.92285 2.32843 7.92285Z" fill="#874D28"/>
<path fill-rule="evenodd" clip-rule="evenodd" d="M1.76514 8.63593C1.76514 8.55297 1.83436 8.48572 1.91976 8.48572H2.81217C2.89756 8.48572 2.96679 8.55297 2.96679 8.63593C2.96679 8.71888 2.89756 8.78613 2.81217 8.78613H1.91976C1.83436 8.78613 1.76514 8.71888 1.76514 8.63593Z" fill="#874D28"/>
<path fill-rule="evenodd" clip-rule="evenodd" d="M31.4874 17.499C31.5393 17.499 31.5813 17.541 31.5813 17.5928V18.1939C31.5813 18.2456 31.5393 18.2876 31.4874 18.2876C31.4356 18.2876 31.3936 18.2456 31.3936 18.1939V17.5928C31.3936 17.541 31.4356 17.499 31.4874 17.499Z" fill="#874D28"/>
<path fill-rule="evenodd" clip-rule="evenodd" d="M31.2056 17.8544C31.2056 17.8025 31.2456 17.7605 31.295 17.7605H31.717C31.7664 17.7605 31.8064 17.8025 31.8064 17.8544C31.8064 17.9062 31.7664 17.9482 31.717 17.9482H31.295C31.2456 17.9482 31.2056 17.9062 31.2056 17.8544Z" fill="#874D28"/>
<path fill-rule="evenodd" clip-rule="evenodd" d="M24.6727 0.564453C24.7556 0.564453 24.8229 0.632775 24.8229 0.717055V1.91392C24.8229 1.9982 24.7556 2.06652 24.6727 2.06652C24.5897 2.06652 24.5225 1.9982 24.5225 1.91392V0.717055C24.5225 0.632775 24.5897 0.564453 24.6727 0.564453Z" fill="#874D28"/>
<path fill-rule="evenodd" clip-rule="evenodd" d="M24.1094 1.27655C24.1094 1.19359 24.1764 1.12634 24.2592 1.12634L25.1237 1.12634C25.2064 1.12634 25.2735 1.19359 25.2735 1.27655C25.2735 1.35951 25.2064 1.42676 25.1237 1.42676L24.2592 1.42676C24.1764 1.42676 24.1094 1.35951 24.1094 1.27655Z" fill="#874D28"/>
<path fill-rule="evenodd" clip-rule="evenodd" d="M17.4988 10.8525C17.5818 10.8525 17.649 10.9212 17.649 11.006V13.5155C17.649 13.6002 17.5818 13.6689 17.4988 13.6689C17.4159 13.6689 17.3486 13.6002 17.3486 13.5155V11.006C17.3486 10.9212 17.4159 10.8525 17.4988 10.8525Z" fill="#874D28"/>
<path fill-rule="evenodd" clip-rule="evenodd" d="M16.4482 12.1672C16.4482 12.0842 16.5165 12.017 16.6008 12.017H18.4362C18.5204 12.017 18.5887 12.0842 18.5887 12.1672C18.5887 12.2501 18.5204 12.3174 18.4362 12.3174H16.6008C16.5165 12.3174 16.4482 12.2501 16.4482 12.1672Z" fill="#874D28"/>
<path fill-rule="evenodd" clip-rule="evenodd" d="M18.7752 10.251C18.8582 10.251 18.9254 10.3193 18.9254 10.4036V11.6004C18.9254 11.6847 18.8582 11.753 18.7752 11.753C18.6922 11.753 18.625 11.6847 18.625 11.6004V10.4036C18.625 10.3193 18.6922 10.251 18.7752 10.251Z" fill="#874D28"/>
<path fill-rule="evenodd" clip-rule="evenodd" d="M18.2119 10.9824C18.2119 10.8891 18.2811 10.8134 18.3665 10.8134H19.2589C19.3443 10.8134 19.4136 10.8891 19.4136 10.9824C19.4136 11.0757 19.3443 11.1514 19.2589 11.1514H18.3665C18.2811 11.1514 18.2119 11.0757 18.2119 10.9824Z" fill="#874D28"/>
<path fill-rule="evenodd" clip-rule="evenodd" d="M24.3699 17.1611C24.4529 17.1611 24.5201 17.2295 24.5201 17.3137V18.5106C24.5201 18.5949 24.4529 18.6632 24.3699 18.6632C24.287 18.6632 24.2197 18.5949 24.2197 18.5106V17.3137C24.2197 17.2295 24.287 17.1611 24.3699 17.1611Z" fill="#874D28"/>
<path fill-rule="evenodd" clip-rule="evenodd" d="M23.8066 17.8742C23.8066 17.7913 23.8737 17.724 23.9564 17.724H24.821C24.9037 17.724 24.9707 17.7913 24.9707 17.8742C24.9707 17.9572 24.9037 18.0244 24.821 18.0244H23.9564C23.8737 18.0244 23.8066 17.9572 23.8066 17.8742Z" fill="#874D28"/>
<path d="M16.6305 27.0733C15.1192 27.5437 14.1367 28.7927 16.3306 30.8809C16.6417 31.2983 19.1314 32.3683 23.2716 30.6898C24.2528 30.0793 26.4744 28.9376 27.0168 28.0372C27.2954 27.617 28.0452 26.2026 25.6246 25.1284C23.7553 24.5389 22.7651 24.0189 21.0505 25.2098C19.7157 26.1369 19.7404 26.1052 16.6305 27.0733Z" fill="#874D28"/>
<path d="M6.49082 14.5184C6.82755 13.1094 6.30188 11.0273 3.1478 12.896C2.6546 13.1882 1.79261 17.9125 2.16083 19.4334C2.57956 23.5993 4.65546 26.6965 9.11893 28.8342C10.7488 28.9344 11.5272 26.7493 10.4331 25.0771C9.58209 23.7765 9.1658 23.7137 9.69517 22.0352C10.1804 20.4965 11.7247 17.5058 7.43982 17.1525C6.40798 17.0674 6.08521 16.2156 6.49082 14.5184Z" fill="#874D28"/>
<path d="M11.6467 7.38697C11.7464 6.57467 10.5719 5.40766 8.60864 7.00649C7.42435 7.9718 7.25072 9.73364 8.07383 9.73424C8.72941 9.73472 9.15097 9.78146 10.1204 10.823C10.518 11.2501 11.1717 10.7299 11.3043 9.18803C11.3375 8.80268 11.522 8.40235 11.6467 7.38697Z" fill="#874D28"/>
</svg>
